SplineFontDB: 3.2
FontName: FelineseBold
FullName: Felinese Bold
FamilyName: Felinese
Weight: Bold
Copyright: (c) 2021 Kawa.
Version: 001.000
ItalicAngle: 0
UnderlinePosition: -103
UnderlineWidth: 51
Ascent: 768
Descent: 256
InvalidEm: 0
sfntRevision: 0x00010000
LayerCount: 2
Layer: 0 1 "Back" 1
Layer: 1 1 "Fore" 0
XUID: [1021 539 157326795 2249]
FSType: 0
OS2Version: 3
OS2_WeightWidthSlopeOnly: 0
OS2_UseTypoMetrics: 1
CreationTime: 1421261332
ModificationTime: 1650108072
PfmFamily: 33
TTFWeight: 400
TTFWidth: 5
LineGap: 92
VLineGap: 0
Panose: 2 0 6 3 0 0 0 0 0 0
OS2TypoAscent: 768
OS2TypoAOffset: 0
OS2TypoDescent: -256
OS2TypoDOffset: 0
OS2TypoLinegap: 92
OS2WinAscent: 768
OS2WinAOffset: 0
OS2WinDescent: 256
OS2WinDOffset: 0
HheadAscent: 704
HheadAOffset: 0
HheadDescent: 0
HheadDOffset: 0
OS2SubXSize: 665
OS2SubYSize: 716
OS2SubXOff: 0
OS2SubYOff: 143
OS2SupXSize: 665
OS2SupYSize: 716
OS2SupXOff: 0
OS2SupYOff: 491
OS2StrikeYSize: 51
OS2StrikeYPos: 265
OS2Vendor: '2ttf'
OS2CodePages: 00000001.00000000
OS2UnicodeRanges: 00000003.00000000.00000000.00000000
Lookup: 4 0 1 "'liga' Standard Ligatures in Latin lookup 0" { "'liga' Standard Ligatures in Latin lookup 0-1"  } ['liga' ('DFLT' <'dflt' > 'latn' <'dflt' > ) ]
Lookup: 258 0 0 "'kern' Horizontal Kerning in Latin lookup 1" { "Numerals" [153,15,0] "Connect low" [153,15,0] "Connect high" [153,15,0] "Empty low" [153,15,0] "Empty high" [153,15,0] "Empty middle" [153,15,0] "Empty middle 2" [153,15,0] "Impromptu" [153,15,0] } ['kern' ('DFLT' <'dflt' > 'latn' <'dflt' > ) ]
MarkAttachClasses: 1
DEI: 91125
KernClass2: 1+ 2 "Empty middle 2"
 39 k u v w uniE130 uniE13D uniE13E uniE13F
 40 o s t ae uniE121 uniE136 uniE13A uniE13B
 0 {} -64 {}
KernClass2: 1+ 2 "Empty middle"
 39 a b d e uniE120 uniE124 uniE126 uniE127
 39 k u v w uniE130 uniE13D uniE13E uniE13F
 0 {} -96 {}
KernClass2: 1+ 2 "Empty high"
 19 b s uniE124 uniE13A
 73 C d h o s t thorn uniE125 uniE126 uniE12B uniE136 uniE13A uniE13B uniE13C
 0 {} -119 {}

StartChar: exclam
Encoding: 33 33 4
Width: 339
Flags: W
LayerCount: 2
Fore
SplineSet
116.633789062 231.63671875 m 0,0,1
 93 202.58203125 93 202.58203125 93 160 c 128,-1,2
 93 117.41796875 93 117.41796875 116.633789062 88.36328125 c 0,3,4
 138.891601562 61 138.891601562 61 170.5 61 c 128,-1,5
 202.108398438 61 202.108398438 61 224.366210938 88.36328125 c 0,6,7
 248 117.41796875 248 117.41796875 248 160 c 128,-1,8
 248 202.58203125 248 202.58203125 224.366210938 231.63671875 c 0,9,10
 202.108398438 259 202.108398438 259 170.5 259 c 128,-1,11
 138.891601562 259 138.891601562 259 116.633789062 231.63671875 c 0,0,1
41.7939453125 98.537109375 m 128,-1,13
 32 126.66015625 32 126.66015625 32 159 c 0,14,15
 32 224.190429688 32 224.190429688 71.1279296875 270.922851562 c 0,16,17
 111.380859375 319 111.380859375 319 169.5 319 c 128,-1,18
 227.619140625 319 227.619140625 319 267.872070312 270.922851562 c 0,19,20
 307 224.190429688 307 224.190429688 307 159 c 128,-1,21
 307 93.8095703125 307 93.8095703125 267.872070312 47.0771484375 c 0,22,23
 227.619140625 -1 227.619140625 -1 169.5 -1 c 128,-1,24
 111.380859375 -1 111.380859375 -1 71.1279296875 47.0771484375 c 0,25,12
 51.587890625 70.4140625 51.587890625 70.4140625 41.7939453125 98.537109375 c 128,-1,13
EndSplineSet
Validated: 1
EndChar

StartChar: comma
Encoding: 44 44 5
Width: 153
Flags: W
LayerCount: 2
Fore
SplineSet
32 -25 m 1,0,-1
 32 128 l 1,1,-1
 121 128 l 1,2,-1
 121 -25 l 1,3,-1
 32 -25 l 1,0,-1
EndSplineSet
Validated: 1
EndChar

StartChar: period
Encoding: 46 46 6
Width: 153
Flags: W
LayerCount: 2
Fore
SplineSet
121 -25 m 1,0,-1
 32 -25 l 1,1,-1
 32 64 l 1,2,-1
 121 64 l 1,3,-1
 121 -25 l 1,0,-1
EndSplineSet
Validated: 1
EndChar

StartChar: zero
Encoding: 48 48 7
Width: 462
Flags: W
LayerCount: 2
Fore
SplineSet
80 398 m 0,0,1
 79 395 79 395 79 392 c 0,2,3
 93 295 93 295 122 266 c 0,4,5
 168 220 168 220 242 220 c 0,6,7
 282 220 282 220 329 266 c 0,8,9
 373 309 373 309 373 388 c 0,10,11
 373 422 373 422 345 471 c 0,12,13
 324 508 324 508 275 577 c 1,14,15
 283 578 283 578 291 578 c 0,16,17
 353 575 353 575 390 536 c 0,18,19
 447 476 447 476 447 389 c 0,20,-1
 447 386 l 0,21,22
 447 384 447 384 447 383 c 0,23,24
 447 381 447 381 447 380 c 128,-1,25
 447 379 447 379 447 377 c 0,26,27
 447 280 447 280 382 212 c 0,28,29
 314 141 314 141 239 141 c 0,30,31
 238 141 238 141 237 141 c 0,32,33
 134 141 134 141 65 212 c 0,34,35
 0 279 0 279 0 389 c 0,36,37
 0 478 0 478 65 566 c 0,38,39
 99 612 99 612 155 612 c 0,40,41
 163 612 163 612 169 611 c 0,42,43
 192 609 192 609 214 607 c 1,44,45
 90 550 90 550 80 398 c 0,0,1
EndSplineSet
Validated: 1
EndChar

StartChar: one
Encoding: 49 49 8
Width: 444
Flags: W
LayerCount: 2
Fore
SplineSet
444 322 m 1,0,-1
 0 321 l 1,1,-1
 0 416 l 1,2,-1
 244 417 l 1,3,-1
 178 519 l 1,4,-1
 302 519 l 1,5,-1
 368 417 l 1,6,-1
 444 417 l 1,7,-1
 444 322 l 1,0,-1
EndSplineSet
Validated: 1
EndChar

StartChar: two
Encoding: 50 50 9
Width: 444
Flags: W
LayerCount: 2
Fore
SplineSet
84 417 m 9,0,-1
 122 476 l 1,1,-1
 28 476 l 1,2,-1
 28 546 l 1,3,-1
 393 546 l 1,4,-1
 393 476 l 1,5,-1
 228 475 l 1,6,-1
 190 416 l 1,7,-1
 444 417 l 1,8,-1
 444 322 l 1,9,-1
 0 322 l 1,10,-1
 0 417 l 1,11,-1
 84 417 l 9,0,-1
EndSplineSet
Validated: 1
EndChar

StartChar: three
Encoding: 51 51 10
Width: 444
Flags: W
LayerCount: 2
Fore
SplineSet
342 416 m 1,0,-1
 444 416 l 1,1,-1
 444 322 l 1,2,-1
 0 322 l 1,3,-1
 0 416 l 1,4,-1
 135 416 l 1,5,-1
 39 517 l 1,6,-1
 39 582 l 1,7,-1
 124 582 l 1,8,-1
 261 465 l 1,9,-1
 341 547 l 1,10,-1
 413 547 l 1,11,-1
 413 487 l 1,12,-1
 342 416 l 1,0,-1
EndSplineSet
Validated: 1
EndChar

StartChar: four
Encoding: 52 52 11
Width: 444
Flags: W
LayerCount: 2
Fore
SplineSet
0 320 m 29,0,-1
 0 605 l 5,1,-1
 92 688 l 29,2,-1
 92 570 l 5,3,-1
 360 570 l 4,4,5
 422 556 422 556 443 495 c 5,6,-1
 443 320 l 13,7,-1
 354 320 l 5,8,-1
 354 492 l 29,9,-1
 88 492 l 5,10,-1
 88 416 l 5,11,-1
 284 416 l 5,12,-1
 284 320 l 13,13,-1
 0 320 l 29,0,-1
EndSplineSet
Validated: 1
EndChar

StartChar: question
Encoding: 63 63 12
Width: 217
Flags: W
LayerCount: 2
Fore
SplineSet
32 615 m 1,0,-1
 32 704 l 1,1,-1
 185 704 l 1,2,-1
 185 615 l 1,3,-1
 32 615 l 1,0,-1
32 451.5 m 1,4,-1
 32 541.5 l 1,5,-1
 185 541.5 l 1,6,-1
 185 0 l 1,7,-1
 96 0 l 1,8,-1
 96 451.5 l 1,9,-1
 32 451.5 l 1,4,-1
EndSplineSet
Validated: 1
EndChar

StartChar: C
Encoding: 67 67 13
Width: 529
Flags: W
LayerCount: 2
Fore
SplineSet
378.052734375 0 m 1,0,-1
 377 233.336914062 l 2,1,2
 376.05078125 335.8515625 376.05078125 335.8515625 294.009126605 386.779296875 c 0,3,4
 207.11465974 441 207.11465974 441 44.5 441 c 2,5,-1
 32 441 l 1,6,-1
 32 531 l 1,7,-1
 44.5 531 l 2,8,9
 251.493532197 531 251.493532197 531 364.344726562 460.010742188 c 0,10,11
 464.956054688 392.680664062 464.956054688 392.680664062 466 258.520507812 c 2,12,-1
 467.047851562 -0 l 1,13,-1
 378.052734375 0 l 1,0,-1
466 615 m 1,14,-1
 32 615 l 1,15,-1
 32 704 l 1,16,-1
 466 704 l 1,17,-1
 466 615 l 1,14,-1
EndSplineSet
Validated: 1
EndChar

StartChar: F
Encoding: 70 70 14
Width: 626
Flags: W
LayerCount: 2
Fore
SplineSet
594 209.5 m 1,0,-1
 32 209.5 l 1,1,-1
 32 300.5 l 1,2,-1
 594 300.5 l 1,3,-1
 594 209.5 l 1,0,-1
465.560499931 389 m 1,4,-1
 160.439500069 389 l 1,5,-1
 160.439500069 480 l 1,6,-1
 465.560499931 480 l 1,7,-1
 465.560499931 389 l 1,4,-1
EndSplineSet
Validated: 1
EndChar

StartChar: G
Encoding: 71 71 15
Width: 306
Flags: W
LayerCount: 2
Fore
SplineSet
274 0 m 1,0,-1
 185 0 l 1,1,-1
 185 310 l 1,2,-1
 274 310 l 1,3,-1
 274 0 l 1,0,-1
121 0 m 1,4,-1
 32 0 l 1,5,-1
 32 704 l 1,6,-1
 121 704 l 1,7,-1
 121 437 l 1,8,-1
 274 437 l 1,9,-1
 274 346 l 1,10,-1
 121 346 l 1,11,-1
 121 0 l 1,4,-1
274 485 m 1,12,-1
 185 485 l 1,13,-1
 185 704 l 1,14,-1
 274 704 l 1,15,-1
 274 485 l 1,12,-1
EndSplineSet
Validated: 1
EndChar

StartChar: H
Encoding: 72 72 16
Width: 345
Flags: W
LayerCount: 2
Fore
SplineSet
185 529 m 1,0,-1
 185 0 l 1,1,-1
 96 0 l 1,2,-1
 96 438 l 1,3,-1
 32 438 l 1,4,-1
 32 529 l 1,5,-1
 185 529 l 1,0,-1
313 201.5 m 1,6,-1
 224 201.5 l 1,7,-1
 224 323.5 l 1,8,-1
 313 323.5 l 1,9,-1
 313 201.5 l 1,6,-1
313 583 m 1,10,-1
 224 583 l 1,11,-1
 224 704 l 1,12,-1
 313 704 l 1,13,-1
 313 583 l 1,10,-1
185 615 m 1,14,-1
 32 615 l 1,15,-1
 32 704 l 1,16,-1
 185 704 l 1,17,-1
 185 615 l 1,14,-1
EndSplineSet
Validated: 1
EndChar

StartChar: K
Encoding: 75 75 17
Width: 434
Flags: W
LayerCount: 2
Fore
SplineSet
402 0 m 1,0,-1
 313 0 l 1,1,-1
 313 448 l 1,2,-1
 402 448 l 1,3,-1
 402 0 l 1,0,-1
249 0 m 1,4,-1
 160 0 l 1,5,-1
 160 704 l 1,6,-1
 249 704 l 1,7,-1
 249 0 l 1,4,-1
121 391 m 1,8,-1
 32 391 l 1,9,-1
 32 512 l 1,10,-1
 121 512 l 1,11,-1
 121 391 l 1,8,-1
402 583 m 1,12,-1
 313 583 l 1,13,-1
 313 704 l 1,14,-1
 402 704 l 1,15,-1
 402 583 l 1,12,-1
EndSplineSet
Validated: 1
EndChar

StartChar: M
Encoding: 77 77 18
Width: 434
Flags: W
LayerCount: 2
Fore
SplineSet
402 0 m 1,0,-1
 313 0 l 1,1,-1
 313 121 l 1,2,-1
 402 121 l 1,3,-1
 402 0 l 1,0,-1
249 0 m 1,4,-1
 32 0 l 1,5,-1
 32 89 l 1,6,-1
 160 89 l 1,7,-1
 160 704 l 1,8,-1
 249 704 l 1,9,-1
 249 0 l 1,4,-1
121 276 m 1,10,-1
 32 276 l 1,11,-1
 32 704 l 1,12,-1
 121 704 l 1,13,-1
 121 276 l 1,10,-1
402 583 m 1,14,-1
 313 583 l 1,15,-1
 313 704 l 1,16,-1
 402 704 l 1,17,-1
 402 583 l 1,14,-1
EndSplineSet
Validated: 1
EndChar

StartChar: R
Encoding: 82 82 19
Width: 345
Flags: W
LayerCount: 2
Fore
SplineSet
249 0 m 1,0,-1
 160 0 l 1,1,-1
 160 529 l 1,2,-1
 313 529 l 1,3,-1
 313 438 l 1,4,-1
 249 438 l 1,5,-1
 249 0 l 1,0,-1
121 201.5 m 1,6,-1
 32 201.5 l 1,7,-1
 32 323.5 l 1,8,-1
 121 323.5 l 1,9,-1
 121 201.5 l 1,6,-1
121 583 m 1,10,-1
 32 583 l 1,11,-1
 32 704 l 1,12,-1
 121 704 l 1,13,-1
 121 583 l 1,10,-1
313 615 m 1,14,-1
 160 615 l 1,15,-1
 160 704 l 1,16,-1
 313 704 l 1,17,-1
 313 615 l 1,14,-1
EndSplineSet
Validated: 1
EndChar

StartChar: backslash
Encoding: 92 92 20
Width: 440
Flags: W
LayerCount: 2
Fore
SplineSet
176.500773265 342.489257812 m 1,0,-1
 0 342.489257812 l 1,1,-1
 0 428.5 l 1,2,-1
 162.062092028 428.5 l 1,3,-1
 129.950249923 608 l 1,4,-1
 233.534236134 608 l 1,5,-1
 264.499226735 424.510742188 l 1,6,-1
 441 424.510742188 l 1,7,-1
 441 338.5 l 1,8,-1
 278.937907972 338.5 l 1,9,-1
 311.049750077 159 l 1,10,-1
 207.465763866 159 l 1,11,-1
 176.500773265 342.489257812 l 1,0,-1
EndSplineSet
Validated: 1
EndChar

StartChar: a
Encoding: 97 97 21
Width: 498
Flags: W
LayerCount: 2
Fore
SplineSet
261.414359226 0 m 1,0,-1
 30 0 l 1,1,-1
 30 89 l 1,2,-1
 158.784121539 89 l 1,3,-1
 158.784121539 543.5 l 2,4,5
 158.784121539 628.028320312 158.784121539 628.028320312 199.430362312 673.014648438 c 128,-1,6
 240.076603084 718 240.076603084 718 319.648370497 718 c 0,7,8
 391.098632812 718 391.098632812 718 427.548828125 684.387695312 c 128,-1,9
 464 650.774414062 464 650.774414062 464 586.5 c 2,10,-1
 464 518 l 1,11,-1
 375 518 l 1,12,-1
 375 560.5 l 2,13,14
 375 602.298828125 375 602.298828125 362.486328125 620.149414062 c 128,-1,15
 349.97265625 638 349.97265625 638 321.954667974 638 c 2,16,-1
 309.270031855 638 l 2,17,18
 285.208187044 638 285.208187044 638 273.310710074 622.930664062 c 128,-1,19
 261.414359226 607.862304688 261.414359226 607.862304688 261.414359226 571.5 c 2,20,-1
 261.414359226 0 l 1,0,-1
EndSplineSet
Validated: 1
EndChar

StartChar: b
Encoding: 98 98 22
Width: 498
Flags: W
LayerCount: 2
Fore
SplineSet
466 0 m 1,0,-1
 32 0 l 1,1,-1
 32 89 l 1,2,-1
 257.683525312 89 l 1,3,4
 32 200.553710938 32 200.553710938 32 478.5 c 2,5,-1
 32 704 l 1,6,-1
 121 704 l 1,7,-1
 121 478.5 l 2,8,9
 121 223.734375 121 223.734375 458.833984375 83.4453125 c 2,10,-1
 466 80.2314453125 l 1,11,-1
 466 0 l 1,0,-1
EndSplineSet
Validated: 1
EndChar

StartChar: d
Encoding: 100 100 23
Width: 510
Flags: W
LayerCount: 2
Fore
SplineSet
425.729492188 0 m 1,0,-1
 316.928710938 0 l 1,1,-1
 90.2705078125 497 l 1,2,-1
 205.166975592 497 l 1,3,-1
 425.729492188 0 l 1,0,-1
484 615 m 1,4,-1
 32 615 l 1,5,-1
 32 704 l 1,6,-1
 484 704 l 1,7,-1
 484 615 l 1,4,-1
EndSplineSet
Validated: 1
EndChar

StartChar: e
Encoding: 101 101 24
Width: 345
Flags: W
LayerCount: 2
Fore
SplineSet
313 0 m 1,0,-1
 32 0 l 1,1,-1
 32 704 l 1,2,-1
 121 704 l 1,3,-1
 121 89 l 1,4,-1
 313 89 l 1,5,-1
 313 0 l 1,0,-1
313 583 m 1,6,-1
 224 583 l 1,7,-1
 224 704 l 1,8,-1
 313 704 l 1,9,-1
 313 583 l 1,6,-1
EndSplineSet
Validated: 1
EndChar

StartChar: f
Encoding: 102 102 25
Width: 562
Flags: W
LayerCount: 2
Fore
SplineSet
530 209.5 m 1,0,-1
 32 209.5 l 1,1,-1
 32 300.5 l 1,2,-1
 530 300.5 l 1,3,-1
 530 209.5 l 1,0,-1
530 389 m 1,4,-1
 32 389 l 1,5,-1
 32 480 l 1,6,-1
 530 480 l 1,7,-1
 530 389 l 1,4,-1
EndSplineSet
Validated: 1
EndChar

StartChar: h
Encoding: 104 104 26
Width: 562
Flags: W
LayerCount: 2
Fore
SplineSet
330 0 m 1,0,-1
 232 0 l 1,1,-1
 232 438 l 1,2,-1
 32 438 l 1,3,-1
 32 529 l 1,4,-1
 530 529 l 1,5,-1
 530 438 l 1,6,-1
 330 438 l 1,7,-1
 330 0 l 1,0,-1
530 615 m 1,8,-1
 32 615 l 1,9,-1
 32 704 l 1,10,-1
 530 704 l 1,11,-1
 530 615 l 1,8,-1
EndSplineSet
Validated: 1
EndChar

StartChar: i
Encoding: 105 105 27
Width: 153
Flags: W
LayerCount: 2
Fore
SplineSet
121 0 m 1,0,-1
 32 0 l 1,1,-1
 32 345 l 1,2,-1
 121 345 l 1,3,-1
 121 0 l 1,0,-1
121 359 m 1,4,-1
 32 359 l 1,5,-1
 32 704 l 1,6,-1
 121 704 l 1,7,-1
 121 359 l 1,4,-1
EndSplineSet
Validated: 1
EndChar

StartChar: k
Encoding: 107 107 28
Width: 434
Flags: W
LayerCount: 2
Fore
SplineSet
274 0 m 1,0,-1
 185 0 l 1,1,-1
 161.289802499 704 l 1,2,-1
 272.710197501 704 l 1,3,-1
 274 0 l 1,0,-1
402 325 m 1,4,-1
 313 325 l 1,5,-1
 313 416 l 1,6,-1
 402 416 l 1,7,-1
 402 325 l 1,4,-1
121 325 m 1,8,-1
 32 325 l 1,9,-1
 32 416 l 1,10,-1
 121 416 l 1,11,-1
 121 325 l 1,8,-1
EndSplineSet
Validated: 1
EndChar

StartChar: l
Encoding: 108 108 29
Width: 281
Flags: W
LayerCount: 2
Fore
SplineSet
121 0 m 1,0,-1
 32 0 l 1,1,-1
 32 704 l 1,2,-1
 121 704 l 1,3,-1
 121 0 l 1,0,-1
249 161.5 m 1,4,-1
 160 161.5 l 1,5,-1
 160 284.5 l 1,6,-1
 249 284.5 l 1,7,-1
 249 161.5 l 1,4,-1
249 405 m 1,8,-1
 160 405 l 1,9,-1
 160 528 l 1,10,-1
 249 528 l 1,11,-1
 249 405 l 1,8,-1
EndSplineSet
Validated: 1
EndChar

StartChar: m
Encoding: 109 109 30
Width: 345
Flags: W
LayerCount: 2
Fore
SplineSet
313 0 m 1,0,-1
 32 0 l 1,1,-1
 32 89 l 1,2,-1
 224 89 l 1,3,-1
 224 704 l 1,4,-1
 313 704 l 1,5,-1
 313 0 l 1,0,-1
121 583 m 1,6,-1
 32 583 l 1,7,-1
 32 704 l 1,8,-1
 121 704 l 1,9,-1
 121 583 l 1,6,-1
EndSplineSet
Validated: 1
EndChar

StartChar: n
Encoding: 110 110 31
Width: 345
Flags: W
LayerCount: 2
Fore
SplineSet
120.5 0 m 2,0,-1
 32 0 l 1,1,-1
 32 89 l 1,2,-1
 110.5 89 l 2,3,4
 224 89 224 89 224 349.89453125 c 2,5,-1
 224 704 l 1,6,-1
 313 704 l 1,7,-1
 313 382.90234375 l 2,8,9
 313 0 313 0 120.5 0 c 2,0,-1
121 324 m 1,10,-1
 32 324 l 1,11,-1
 32 704 l 1,12,-1
 121 704 l 1,13,-1
 121 324 l 1,10,-1
EndSplineSet
Validated: 1
EndChar

StartChar: o
Encoding: 111 111 32
Width: 498
Flags: W
LayerCount: 2
Fore
SplineSet
133.5 0 m 2,0,-1
 96 0 l 1,1,-1
 96 89 l 1,2,-1
 108.5 89 l 2,3,4
 249.528838575 89 249.528838575 89 321.680547035 154.897460938 c 0,5,6
 389 220.793945312 389 220.793945312 389 356.7734375 c 2,7,-1
 389 359.63671875 l 2,8,9
 389 615 389 615 284.709198813 615 c 2,10,-1
 32 615 l 1,11,-1
 32 704 l 1,12,-1
 278.995891349 704 l 2,13,14
 478 704 478 704 478 352.965820312 c 2,15,-1
 478 350.068359375 l 2,16,17
 478 177.30078125 478 177.30078125 397.487304688 88.650390625 c 0,18,19
 311.531615124 0 311.531615124 0 133.5 0 c 2,0,-1
EndSplineSet
Validated: 1
EndChar

StartChar: p
Encoding: 112 112 33
Width: 306
Flags: W
LayerCount: 2
Fore
SplineSet
274 0 m 1,0,-1
 185 0 l 1,1,-1
 185 121 l 1,2,-1
 274 121 l 1,3,-1
 274 0 l 1,0,-1
121 0 m 1,4,-1
 32 0 l 1,5,-1
 32 506 l 1,6,-1
 121 506 l 1,7,-1
 121 0 l 1,4,-1
274 173 m 1,8,-1
 185 173 l 1,9,-1
 185 704 l 1,10,-1
 274 704 l 1,11,-1
 274 173 l 1,8,-1
121 583 m 1,12,-1
 32 583 l 1,13,-1
 32 704 l 1,14,-1
 121 704 l 1,15,-1
 121 583 l 1,12,-1
EndSplineSet
Validated: 1
EndChar

StartChar: r
Encoding: 114 114 34
Width: 306
Flags: W
LayerCount: 2
Fore
SplineSet
274 0 m 1,0,-1
 185 0 l 1,1,-1
 185 121 l 1,2,-1
 274 121 l 1,3,-1
 274 0 l 1,0,-1
121 0 m 1,4,-1
 32 0 l 1,5,-1
 32 121 l 1,6,-1
 121 121 l 1,7,-1
 121 0 l 1,4,-1
274 583 m 1,8,-1
 185 583 l 1,9,-1
 185 704 l 1,10,-1
 274 704 l 1,11,-1
 274 583 l 1,8,-1
121 583 m 1,12,-1
 32 583 l 1,13,-1
 32 704 l 1,14,-1
 121 704 l 1,15,-1
 121 583 l 1,12,-1
EndSplineSet
Validated: 1
EndChar

StartChar: s
Encoding: 115 115 35
Width: 301
Flags: W
LayerCount: 2
Fore
SplineSet
265.955078125 0 m 1,0,-1
 164.545898438 0 l 1,1,-1
 32 704 l 1,2,-1
 133.41015625 704 l 1,3,-1
 265.955078125 0 l 1,0,-1
EndSplineSet
Validated: 1
EndChar

StartChar: t
Encoding: 116 116 36
Width: 434
Flags: W
LayerCount: 2
Fore
SplineSet
402 0 m 1,0,-1
 313 0 l 1,1,-1
 313 121 l 1,2,-1
 402 121 l 1,3,-1
 402 0 l 1,0,-1
402 162 m 1,4,-1
 313 162 l 1,5,-1
 313 615 l 1,6,-1
 32 615 l 1,7,-1
 32 704 l 1,8,-1
 402 704 l 1,9,-1
 402 162 l 1,4,-1
EndSplineSet
Validated: 1
EndChar

StartChar: u
Encoding: 117 117 37
Width: 345
Flags: W
LayerCount: 2
Fore
SplineSet
313 209.5 m 1,0,-1
 32 209.5 l 1,1,-1
 32 300.5 l 1,2,-1
 313 300.5 l 1,3,-1
 313 209.5 l 1,0,-1
313 405 m 1,4,-1
 224 405 l 1,5,-1
 224 528 l 1,6,-1
 313 528 l 1,7,-1
 313 405 l 1,4,-1
121 405 m 1,8,-1
 32 405 l 1,9,-1
 32 528 l 1,10,-1
 121 528 l 1,11,-1
 121 405 l 1,8,-1
EndSplineSet
Validated: 1
EndChar

StartChar: v
Encoding: 118 118 38
Width: 434
Flags: W
LayerCount: 2
Fore
SplineSet
402 209.5 m 1,0,-1
 32 209.5 l 1,1,-1
 32 300.5 l 1,2,-1
 402 300.5 l 1,3,-1
 402 209.5 l 1,0,-1
402 389 m 1,4,-1
 32 389 l 1,5,-1
 32 480 l 1,6,-1
 161.289802499 480 l 1,7,-1
 161.289802499 608 l 1,8,-1
 272.710197501 608 l 1,9,-1
 272.710197501 480 l 1,10,-1
 402 480 l 1,11,-1
 402 389 l 1,4,-1
EndSplineSet
Validated: 1
EndChar

StartChar: w
Encoding: 119 119 39
Width: 466
Flags: W
LayerCount: 2
Fore
SplineSet
314.015650744 453 m 1,0,-1
 173.169896131 453 l 1,1,-1
 173.169896131 544 l 1,2,-1
 314.015650744 544 l 1,3,-1
 314.015650744 453 l 1,0,-1
151.525390625 225.5 m 1,4,-1
 32 225.5 l 1,5,-1
 112.326171875 348.5 l 1,6,-1
 374.859375 348.5 l 1,7,-1
 455.185546875 225.5 l 1,8,-1
 335.66015625 225.5 l 1,9,-1
 243.592773438 336.83120331 l 1,10,-1
 151.525390625 225.5 l 1,4,-1
EndSplineSet
Validated: 1
EndChar

StartChar: section
Encoding: 167 167 41
Width: 626
Flags: W
LayerCount: 2
Fore
SplineSet
32.3544921875 580.419921875 m 1,0,-1
 177.085259869 536.462890625 l 1,1,-1
 177.085259869 417.823242188 l 1,2,-1
 32.3544921875 462.296875 l 1,3,-1
 32.3544921875 580.419921875 l 1,0,-1
177.085259869 291.1171875 m 1,4,-1
 177.085259869 169.3515625 l 1,5,-1
 32 123.233398438 l 1,6,-1
 34.5419921875 247.790039062 l 1,7,-1
 177.085259869 291.1171875 l 1,4,-1
228.058304977 415.706054688 m 1,8,-1
 228.058304977 534.514648438 l 1,9,-1
 380.977440301 491.172851562 l 1,10,-1
 380.977440301 371.854492188 l 1,11,-1
 228.058304977 415.706054688 l 1,8,-1
380.977440301 217.33203125 m 1,12,-1
 228.058304977 171.971679688 l 1,13,-1
 228.058304977 293.078125 l 1,14,-1
 380.977440301 336.462890625 l 1,15,-1
 380.977440301 217.33203125 l 1,12,-1
438.457682656 355.37109375 m 1,16,-1
 438.457682656 474.880859375 l 1,17,-1
 596.20703125 427.280273438 l 1,18,-1
 598.502929688 284.9375 l 1,19,-1
 438.457682656 234.3828125 l 1,20,-1
 438.457682656 352.770507812 l 1,21,-1
 443.017169009 354.063476562 l 1,22,-1
 438.457682656 355.37109375 l 1,16,-1
EndSplineSet
Validated: 1
EndChar

StartChar: guillemotleft
Encoding: 171 171 42
Width: 281
Flags: W
LayerCount: 2
Fore
SplineSet
32 160 m 1,0,-1
 32 704 l 1,1,-1
 249 704 l 1,2,-1
 249 647 l 1,3,-1
 121 647 l 1,4,-1
 121 160 l 1,5,-1
 32 160 l 1,0,-1
EndSplineSet
Validated: 1
EndChar

StartChar: guillemotright
Encoding: 187 187 43
Width: 281
Flags: W
LayerCount: 2
Fore
SplineSet
249 544 m 1,0,-1
 249 0 l 1,1,-1
 32 0 l 1,2,-1
 32 57 l 1,3,-1
 160 57 l 1,4,-1
 160 544 l 1,5,-1
 249 544 l 1,0,-1
EndSplineSet
Validated: 1
EndChar

StartChar: Aacute
Encoding: 193 193 44
Width: 424
Flags: W
LayerCount: 2
Fore
SplineSet
190 0 m 1,0,-1
 -41 0 l 1,1,-1
 -41 89 l 1,2,-1
 88 89 l 1,3,-1
 88 538 l 1,4,-1
 190 538 l 1,5,-1
 190 0 l 1,0,-1
393 368 m 1,6,-1
 304 368 l 1,7,-1
 304 546 l 2,8,9
 304 615 304 615 268 615 c 2,10,-1
 88 615 l 1,11,-1
 88 704 l 1,12,-1
 274 704 l 2,13,14
 333 704 333 704 363 661 c 128,-1,15
 393 618 393 618 393 538 c 2,16,-1
 393 368 l 1,6,-1
EndSplineSet
Validated: 1
EndChar

StartChar: Eacute
Encoding: 201 201 45
Width: 281
Flags: W
LayerCount: 2
Fore
SplineSet
249 0 m 1,0,-1
 32 0 l 1,1,-1
 32 517 l 1,2,-1
 121 517 l 1,3,-1
 121 89 l 1,4,-1
 249 89 l 1,5,-1
 249 0 l 1,0,-1
249 402 m 1,6,-1
 160 402 l 1,7,-1
 160 704 l 1,8,-1
 249 704 l 1,9,-1
 249 402 l 1,6,-1
121 583 m 1,10,-1
 32 583 l 1,11,-1
 32 704 l 1,12,-1
 121 704 l 1,13,-1
 121 583 l 1,10,-1
EndSplineSet
Validated: 1
EndChar

StartChar: agrave
Encoding: 224 224 46
Width: 498
Flags: W
LayerCount: 2
Fore
SplineSet
263.414359226 0 m 1,0,-1
 32 0 l 1,1,-1
 32 89 l 1,2,-1
 160.784121539 89 l 1,3,-1
 160.784121539 318.84765625 l 2,4,5
 160.784121539 408.452148438 160.784121539 408.452148438 202.008062802 456.103515625 c 0,6,7
 243.230877944 507 243.230877944 507 325.107816712 507 c 2,8,-1
 466 507 l 1,9,-1
 466 417 l 1,10,-1
 322.801519235 417 l 2,11,12
 292.957038907 417 292.957038907 417 278.701462858 402.720703125 c 0,13,14
 264.445886808 389.27734375 264.445886808 389.27734375 263.414359226 358.100585938 c 2,15,-1
 263.414359226 0 l 1,0,-1
466 615 m 1,16,-1
 32 615 l 1,17,-1
 32 704 l 1,18,-1
 466 704 l 1,19,-1
 466 615 l 1,16,-1
EndSplineSet
Validated: 1
EndChar

StartChar: acircumflex
Encoding: 226 226 47
Width: 498
Flags: W
LayerCount: 2
Fore
SplineSet
370 0 m 1,0,-1
 32 0 l 1,1,-1
 32 89 l 1,2,-1
 370 89 l 1,3,-1
 370 0 l 1,0,-1
263.414359226 122 m 1,4,-1
 160.784121539 122 l 1,5,-1
 160.784121539 487.5 l 2,6,7
 160.784121539 570.052734375 160.784121539 570.052734375 200.884193232 614.026367188 c 128,-1,8
 240.985391046 658 240.985391046 658 319.342073021 658 c 2,9,-1
 325.107816712 658 l 2,10,11
 394.975585938 658 394.975585938 658 430.48828125 621.923828125 c 128,-1,12
 466 585.846679688 466 585.846679688 466 517.5 c 2,13,-1
 466 452 l 1,14,-1
 377 452 l 1,15,-1
 377 503.5 l 2,16,17
 377 542.822265625 377 542.822265625 365.467773438 559.411132812 c 128,-1,18
 353.936523438 576 353.936523438 576 328.567262926 576 c 2,19,-1
 325.107816712 576 l 2,20,21
 293.43001007 576 293.43001007 576 278.422184648 559.254882812 c 128,-1,22
 263.414359226 542.508789062 263.414359226 542.508789062 263.414359226 503.5 c 2,23,-1
 263.414359226 122 l 1,4,-1
EndSplineSet
Validated: 1
EndChar

StartChar: ae
Encoding: 230 230 48
Width: 516
Flags: W
LayerCount: 2
Fore
SplineSet
492 0 m 1,0,-1
 356 0 l 1,1,-1
 356 345 l 1,2,-1
 445 345 l 1,3,-1
 445 89 l 1,4,-1
 492 89 l 1,5,-1
 492 0 l 1,0,-1
249 0 m 1,6,-1
 32 0 l 1,7,-1
 32 89 l 1,8,-1
 160 89 l 1,9,-1
 160 502 l 2,10,11
 160 704 160 704 345 704 c 2,12,-1
 445 704 l 1,13,-1
 445 423 l 1,14,-1
 356 423 l 1,15,-1
 356 612 l 1,16,17
 345 617 345 617 331 617 c 0,18,19
 305 617 305 617 271 598 c 0,20,21
 244 583 244 583 244 519 c 0,22,23
 244 516 244 516 244 514 c 2,24,-1
 249 0 l 1,6,-1
EndSplineSet
Validated: 1
LCarets2: 1 0
EndChar

StartChar: thorn
Encoding: 254 254 49
Width: 498
Flags: W
LayerCount: 2
Fore
SplineSet
249 0 m 1,0,-1
 160 0 l 1,1,-1
 160 121 l 1,2,-1
 249 121 l 1,3,-1
 249 0 l 1,0,-1
249 181 m 1,4,-1
 160 181 l 1,5,-1
 160 615 l 1,6,-1
 32 615 l 1,7,-1
 32 704 l 1,8,-1
 249 704 l 1,9,-1
 249 181 l 1,4,-1
313 0 m 1,10,-1
 313 490 l 1,11,-1
 466 490 l 1,12,-1
 466 400 l 1,13,-1
 402 400 l 1,14,-1
 402 0 l 1,15,-1
 313 0 l 1,10,-1
313 615 m 1,16,-1
 313 704 l 1,17,-1
 466 704 l 1,18,-1
 466 615 l 1,19,-1
 313 615 l 1,16,-1
EndSplineSet
Validated: 1
EndChar

StartChar: uni25B6
Encoding: 9654 9654 50
Width: 626
Flags: W
LayerCount: 2
Fore
SplineSet
32 582.612304688 m 1,0,-1
 612.686523438 352 l 1,1,-1
 32 121.387695312 l 1,2,-1
 32 582.612304688 l 1,0,-1
EndSplineSet
Validated: 1
EndChar

StartChar: uni25C0
Encoding: 9664 9664 51
Width: 626
Flags: W
LayerCount: 2
Fore
SplineSet
612.686523438 121.387695312 m 1,0,-1
 32 352 l 1,1,-1
 612.686523438 582.612304688 l 1,2,-1
 612.686523438 121.387695312 l 1,0,-1
EndSplineSet
Validated: 1
EndChar

StartChar: uni25B7
Encoding: 9655 9655 52
Width: 626
Flags: W
LayerCount: 2
Fore
SplineSet
89 196.694335938 m 1,0,-1
 484.896170686 350.197265625 l 1,1,-1
 89 509.055664062 l 1,2,-1
 89 196.694335938 l 1,0,-1
32 582.612304688 m 1,3,-1
 612.686523438 352 l 1,4,-1
 32 121.387695312 l 1,5,-1
 32 582.612304688 l 1,3,-1
EndSplineSet
Validated: 1
EndChar

StartChar: uni25C1
Encoding: 9665 9665 53
Width: 626
Flags: W
LayerCount: 2
Fore
SplineSet
557.686523438 509.138671875 m 1,0,-1
 161.950625976 352.065429688 l 1,1,-1
 557.686523438 196.77734375 l 1,2,-1
 557.686523438 509.138671875 l 1,0,-1
612.686523438 121.387695312 m 1,3,-1
 32 352 l 1,4,-1
 612.686523438 582.612304688 l 1,5,-1
 612.686523438 121.387695312 l 1,3,-1
EndSplineSet
Validated: 1
EndChar

StartChar: triagup
Encoding: 9650 9650 54
Width: 562
Flags: W
LayerCount: 2
Fore
SplineSet
34 96 m 1,0,-1
 289.612253923 626.686523438 l 1,1,-1
 545.225585938 96 l 1,2,-1
 34 96 l 1,0,-1
EndSplineSet
Validated: 1
EndChar

StartChar: triagdn
Encoding: 9660 9660 55
Width: 562
Flags: W
LayerCount: 2
Fore
SplineSet
545.225585938 608 m 1,0,-1
 289.612253923 77.3134765625 l 1,1,-1
 34 608 l 1,2,-1
 545.225585938 608 l 1,0,-1
EndSplineSet
Validated: 1
EndChar

StartChar: uni25BD
Encoding: 9661 9661 56
Width: 562
Flags: W
LayerCount: 2
Fore
SplineSet
287.477634136 192.236328125 m 1,0,-1
 457.251953125 563.5 l 1,1,-1
 119.890625 563.5 l 1,2,-1
 287.477634136 192.236328125 l 1,0,-1
545.225585938 608 m 1,3,-1
 289.612253923 77.3134765625 l 1,4,-1
 34 608 l 1,5,-1
 545.225585938 608 l 1,3,-1
EndSplineSet
Validated: 1
EndChar

StartChar: uni25B3
Encoding: 9651 9651 57
Width: 562
Flags: W
LayerCount: 2
Fore
SplineSet
289.612253923 511.788085938 m 1,0,-1
 119.938476562 138.5 l 1,1,-1
 459.287109375 138.5 l 1,2,-1
 289.612253923 511.788085938 l 1,0,-1
34 96 m 1,3,-1
 289.612253923 626.686523438 l 1,4,-1
 545.225585938 96 l 1,5,-1
 34 96 l 1,3,-1
EndSplineSet
Validated: 1
EndChar

StartChar: ellipsis
Encoding: 8230 8230 58
Width: 345
Flags: W
LayerCount: 2
Fore
SplineSet
312 -25 m 1,0,-1
 223 -25 l 1,1,-1
 223 64 l 1,2,-1
 312 64 l 1,3,-1
 312 -25 l 1,0,-1
218 -25 m 1,4,-1
 129 -25 l 1,5,-1
 129 64 l 1,6,-1
 218 64 l 1,7,-1
 218 -25 l 1,4,-1
121 -25 m 1,8,-1
 32 -25 l 1,9,-1
 32 64 l 1,10,-1
 121 64 l 1,11,-1
 121 -25 l 1,8,-1
EndSplineSet
Validated: 1
EndChar

StartChar: c
Encoding: 99 99 59
Width: 444
Flags: W
LayerCount: 2
Fore
SplineSet
0 158 m 2,0,-1
 0 660 l 1,1,-1
 90 660 l 1,2,-1
 90 570 l 1,3,-1
 360 570 l 1,4,-1
 362 570 l 1,5,6
 413 556 413 556 442 497 c 2,7,-1
 443 495 l 1,8,-1
 443 320 l 1,9,-1
 354 320 l 1,10,-1
 354 492 l 1,11,-1
 90 492 l 1,12,-1
 90 416 l 1,13,-1
 284 416 l 1,14,-1
 284 320 l 1,15,-1
 90 320 l 1,16,-1
 90 158 l 2,17,18
 90 123 90 123 111 109 c 0,19,20
 130 96 130 96 169 96 c 2,21,-1
 187 96 l 1,22,-1
 161 0 l 1,23,-1
 150 0 l 2,24,25
 62 0 62 0 29 48 c 0,26,27
 0 89 0 89 0 158 c 2,0,-1
EndSplineSet
Validated: 1
EndChar

StartChar: A
Encoding: 65 65 66
Width: 444
Flags: W
LayerCount: 2
Fore
SplineSet
256 416 m 1,0,-1
 444 416 l 1,1,-1
 444 322 l 1,2,-1
 90 322 l 1,3,-1
 90 173 l 2,4,5
 90 136 90 136 111 121 c 0,6,7
 129 108 129 108 169 108 c 2,8,-1
 187 108 l 1,9,-1
 161 10 l 1,10,-1
 150 10 l 2,11,12
 66 10 66 10 29 60 c 0,13,14
 0 99 0 99 0 170 c 2,15,-1
 0 672 l 1,16,-1
 90 672 l 1,17,-1
 90 416 l 1,18,-1
 142 416 l 1,19,-1
 185 476 l 1,20,-1
 107 476 l 1,21,-1
 107 546 l 1,22,-1
 393 546 l 1,23,-1
 393 476 l 1,24,-1
 293 476 l 1,25,-1
 256 416 l 1,0,-1
EndSplineSet
Validated: 1
EndChar

StartChar: B
Encoding: 66 66 67
Width: 444
Flags: W
LayerCount: 2
Fore
SplineSet
444 322 m 1,0,-1
 90 322 l 1,1,-1
 90 173 l 2,2,3
 91 135 91 135 111 121 c 0,4,5
 128 109 128 109 169 108 c 2,6,-1
 187 108 l 1,7,-1
 161 10 l 1,8,-1
 150 10 l 2,9,10
 66 10 66 10 29 60 c 0,11,12
 0 99 0 99 0 170 c 2,13,-1
 0 672 l 1,14,-1
 90 672 l 1,15,-1
 90 416 l 1,16,-1
 181 416 l 1,17,-1
 106 493 l 1,18,-1
 106 498 l 1,19,-1
 106 552 l 1,20,-1
 171 552 l 1,21,-1
 277 459 l 1,22,-1
 356 540 l 1,23,-1
 362 540 l 1,24,-1
 412 540 l 1,25,-1
 412 492 l 1,26,-1
 412 487 l 1,27,-1
 341 416 l 1,28,-1
 444 416 l 1,29,-1
 444 322 l 1,0,-1
EndSplineSet
Validated: 1
EndChar

StartChar: D
Encoding: 68 68 68
Width: 444
Flags: W
LayerCount: 2
Fore
SplineSet
0 38 m 1,0,-1
 0 532 l 1,1,2
 1 688 1 688 172 689 c 2,3,-1
 392 689 l 1,4,-1
 432 592 l 1,5,-1
 188 592 l 6,6,7
 134 592 134 592 111 580 c 4,8,9
 90 569 90 569 90 530 c 2,10,-1
 90 418 l 1,11,-1
 251 418 l 1,12,-1
 195 518 l 1,13,-1
 304 518 l 1,14,-1
 368 416 l 1,15,-1
 444 416 l 1,16,-1
 444 322 l 1,17,-1
 90 322 l 1,18,-1
 90 126 l 1,19,-1
 284 126 l 1,20,-1
 334 38 l 1,21,-1
 0 38 l 1,0,-1
EndSplineSet
Validated: 1
EndChar

StartChar: E
Encoding: 69 69 69
Width: 444
Flags: W
LayerCount: 2
Fore
SplineSet
0 38 m 1,0,-1
 0 532 l 1,1,2
 1 689 1 689 172 689 c 2,3,-1
 392 689 l 1,4,-1
 432 592 l 1,5,-1
 188 592 l 2,6,7
 134 592 134 592 111 580 c 0,8,9
 90 569 90 569 90 530 c 2,10,-1
 90 416 l 1,11,-1
 157 416 l 1,12,-1
 202 476 l 1,13,-1
 127 476 l 1,14,-1
 127 546 l 1,15,-1
 393 546 l 1,16,-1
 393 476 l 1,17,-1
 297 476 l 1,18,-1
 265 416 l 1,19,-1
 444 416 l 1,20,-1
 444 322 l 1,21,-1
 90 322 l 1,22,-1
 90 126 l 1,23,-1
 385 126 l 1,24,-1
 430 38 l 1,25,-1
 0 38 l 1,0,-1
EndSplineSet
Validated: 1
EndChar

StartChar: I
Encoding: 73 73 70
Width: 444
Flags: W
LayerCount: 2
Fore
SplineSet
412 487 m 1,0,-1
 341 416 l 1,1,-1
 444 416 l 1,2,-1
 444 322 l 1,3,-1
 90 322 l 1,4,-1
 90 126 l 1,5,-1
 385 126 l 1,6,-1
 430 38 l 1,7,-1
 0 38 l 1,8,-1
 0 532 l 1,9,10
 0 689 0 689 172 689 c 2,11,-1
 392 689 l 1,12,-1
 432 592 l 1,13,-1
 188 592 l 2,14,15
 134 592 134 592 111 580 c 0,16,17
 90 569 90 569 90 530 c 2,18,-1
 90 416 l 1,19,-1
 199 416 l 1,20,-1
 127 493 l 1,21,-1
 127 552 l 1,22,-1
 190 552 l 1,23,-1
 283 459 l 1,24,-1
 356 540 l 1,25,-1
 412 540 l 1,26,-1
 412 487 l 1,0,-1
EndSplineSet
Validated: 1
EndChar

StartChar: five
Encoding: 53 53 85
Width: 439
Flags: W
LayerCount: 2
Fore
SplineSet
440 253 m 1,0,-1
 440 158 l 1,1,-1
 -4 158 l 1,2,-1
 -4 253 l 1,3,-1
 440 253 l 1,0,-1
440 321 m 1,4,-1
 -4 321 l 1,5,-1
 -4 416 l 1,6,-1
 239 416 l 1,7,-1
 174 518 l 1,8,-1
 298 518 l 1,9,-1
 363 416 l 1,10,-1
 440 416 l 1,11,-1
 440 321 l 1,4,-1
EndSplineSet
Validated: 1
EndChar

StartChar: six
Encoding: 54 54 86
Width: 444
Flags: W
LayerCount: 2
Fore
SplineSet
444 253 m 1,0,-1
 444 158 l 1,1,-1
 0 158 l 1,2,-1
 0 253 l 1,3,-1
 444 253 l 1,0,-1
84 417 m 9,4,-1
 122 476 l 1,5,-1
 28 476 l 1,6,-1
 28 546 l 1,7,-1
 393 546 l 1,8,-1
 393 476 l 1,9,-1
 228 475 l 1,10,-1
 190 416 l 1,11,-1
 444 417 l 1,12,-1
 444 322 l 1,13,-1
 0 322 l 1,14,-1
 0 417 l 1,15,-1
 84 417 l 9,4,-1
EndSplineSet
Validated: 1
EndChar

StartChar: seven
Encoding: 55 55 87
Width: 444
Flags: W
LayerCount: 2
Fore
SplineSet
444 253 m 5,0,-1
 444 158 l 1,1,-1
 0 158 l 1,2,-1
 0 253 l 5,3,-1
 444 253 l 5,0,-1
342 416 m 1,4,-1
 444 416 l 1,5,-1
 444 322 l 1,6,-1
 0 322 l 1,7,-1
 0 416 l 1,8,-1
 135 416 l 1,9,-1
 39 517 l 1,10,-1
 39 582 l 1,11,-1
 124 582 l 1,12,-1
 261 465 l 1,13,-1
 341 547 l 1,14,-1
 413 547 l 1,15,-1
 413 487 l 1,16,-1
 342 416 l 1,4,-1
EndSplineSet
Validated: 1
EndChar

StartChar: eight
Encoding: 56 56 88
Width: 444
Flags: W
LayerCount: 2
Fore
SplineSet
444 253 m 5,0,-1
 444 158 l 1,1,-1
 0 158 l 1,2,-1
 0 253 l 1,3,-1
 444 253 l 5,0,-1
0 320 m 25,4,-1
 0 605 l 1,5,-1
 92 688 l 25,6,-1
 92 570 l 1,7,-1
 360 570 l 0,8,9
 422 556 422 556 443 495 c 1,10,-1
 443 320 l 9,11,-1
 354 320 l 1,12,-1
 354 492 l 25,13,-1
 88 492 l 1,14,-1
 88 416 l 1,15,-1
 284 416 l 1,16,-1
 284 320 l 9,17,-1
 0 320 l 25,4,-1
EndSplineSet
Validated: 1
EndChar

StartChar: nine
Encoding: 57 57 89
Width: 444
Flags: W
LayerCount: 2
Fore
SplineSet
367 416 m 1,0,-1
 444 416 l 1,1,-1
 444 322 l 1,2,-1
 90 322 l 1,3,-1
 90 179 l 2,4,5
 91 143 91 143 111 129 c 0,6,7
 128 117 128 117 169 117 c 2,8,-1
 187 117 l 1,9,-1
 161 22 l 1,10,-1
 150 22 l 2,11,12
 67 23 67 23 29 71 c 0,13,14
 0 108 0 108 0 176 c 2,15,-1
 0 660 l 1,16,-1
 90 660 l 1,17,-1
 90 418 l 1,18,-1
 240 418 l 1,19,-1
 177 518 l 1,20,-1
 302 518 l 1,21,-1
 367 416 l 1,0,-1
EndSplineSet
Validated: 1
EndChar

StartChar: uniE250
Encoding: 57936 57936 90
Width: 0
VWidth: 0
Flags: W
LayerCount: 2
Back
SplineSet
-425.705078125 726.056640625 m 5,0,-1
 -342.913085938 669.971679688 l 5,1,-1
 -356.038085938 650.59765625 l 5,2,3
 -216 636 -216 636 -136.064453125 567.221679688 c 4,4,5
 -56 498 -56 498 -55.3115234375 380.434570312 c 4,6,7
 -55 285 -55 285 -89.0439453125 215.061523438 c 4,8,9
 -124 145 -124 145 -192.998046875 108.47265625 c 5,10,11
 -141 87 -141 87 -122.381835938 49.97265625 c 5,12,-1
 -209 0 l 5,13,14
 -248 65 -248 65 -357.083007812 72.0908203125 c 5,15,-1
 -355.50390625 172 l 5,16,17
 -248 175 -248 175 -200.995117188 222.810546875 c 4,18,19
 -154 271 -154 271 -155.307617188 379.6171875 c 4,20,21
 -156 467 -156 467 -222.8203125 511.041015625 c 4,22,23
 -290.020507812 555.013671875 -290.020507812 555.013671875 -447.309570312 555.013671875 c 6,24,-1
 -541.572265625 555.013671875 l 5,25,-1
 -425.705078125 726.056640625 l 5,0,-1
EndSplineSet
Fore
Validated: 1
EndChar

StartChar: uniE251
Encoding: 57937 57937 91
Width: 0
VWidth: 0
Flags: W
LayerCount: 2
Back
SplineSet
-632 777 m 1,0,-1
 -568 845 l 1,1,-1
 -143 845 l 1,2,-1
 -143 777 l 1,3,-1
 -632 777 l 1,0,-1
-469.705078125 726.056640625 m 1,0,-1
 -386.913085938 669.971679688 l 1,1,-1
 -400.038085938 650.59765625 l 1,2,3
 -260 636 -260 636 -180.064453125 567.221679688 c 0,4,5
 -100 498 -100 498 -99.3115234375 380.434570312 c 0,6,7
 -99 285 -99 285 -133.043945312 215.061523438 c 0,8,9
 -168 145 -168 145 -236.998046875 108.47265625 c 1,10,11
 -185 87 -185 87 -166.381835938 49.97265625 c 1,12,-1
 -253 0 l 1,13,14
 -292 65 -292 65 -401.083007812 72.0908203125 c 1,15,-1
 -399.50390625 172 l 1,16,17
 -292 175 -292 175 -244.995117188 222.810546875 c 0,18,19
 -198 271 -198 271 -199.307617188 379.6171875 c 0,20,21
 -200 467 -200 467 -266.8203125 511.041015625 c 0,22,23
 -334.020507812 555.013671875 -334.020507812 555.013671875 -491.309570312 555.013671875 c 2,24,-1
 -585.572265625 555.013671875 l 1,25,-1
 -469.705078125 726.056640625 l 1,0,-1
EndSplineSet
Fore
Validated: 1
EndChar

StartChar: parenleft
Encoding: 40 40 137
Width: 249
Flags: W
LayerCount: 2
Fore
SplineSet
32 -33 m 1,0,-1
 32 736 l 1,1,-1
 249 736 l 1,2,-1
 249 679 l 1,3,-1
 121 679 l 1,4,-1
 121 25 l 1,5,-1
 249 25 l 1,6,-1
 249 -33 l 1,7,-1
 32 -33 l 1,0,-1
EndSplineSet
Validated: 1
EndChar

StartChar: parenright
Encoding: 41 41 138
Width: 249
Flags: W
LayerCount: 2
Fore
SplineSet
32 736 m 1,0,-1
 249 736 l 1,1,-1
 249 -33 l 1,2,-1
 32 -33 l 1,3,-1
 32 25 l 1,4,-1
 160 25 l 1,5,-1
 160 679 l 1,6,-1
 32 679 l 1,7,-1
 32 736 l 1,0,-1
EndSplineSet
Validated: 1
EndChar

StartChar: colon
Encoding: 58 58 139
Width: 249
Flags: W
LayerCount: 2
Fore
SplineSet
57.287109375 157.153320312 m 0,0,1
 22 225.163085938 22 225.163085938 22 321 c 128,-1,2
 22 416.836914062 22 416.836914062 57.287109375 484.846679688 c 0,3,4
 94.724609375 557 94.724609375 557 150.5 557 c 2,5,-1
 253.235351562 557 l 1,6,-1
 174.865234375 472.810546875 l 1,7,8
 140 409.165039062 140 409.165039062 140 321 c 0,9,10
 140 231.08984375 140 231.08984375 172.015625 174.579101562 c 0,11,12
 178.802734375 166.565429688 178.802734375 166.565429688 234.971679688 104.6171875 c 2,13,-1
 252.759765625 85 l 1,14,-1
 150.5 85 l 2,15,16
 94.724609375 85 94.724609375 85 57.287109375 157.153320312 c 0,0,1
EndSplineSet
Validated: 1
EndChar

StartChar: grave
Encoding: 96 96 140
Width: 253
VWidth: 0
Flags: W
LayerCount: 2
Fore
SplineSet
137.8828125 730.12109375 m 2,0,-1
 141.577148438 734 l 1,1,-1
 287.14453125 734 l 1,2,-1
 263.3671875 714.580078125 l 2,3,4
 151.060546875 622.856445312 151.060546875 622.856445312 143.405273438 523.639648438 c 2,5,-1
 142.602539062 512 l 1,6,-1
 30 512 l 1,7,-1
 30.4423828125 523.59765625 l 2,8,9
 34.6044921875 632.829101562 34.6044921875 632.829101562 137.8828125 730.12109375 c 2,0,-1
EndSplineSet
Validated: 1
EndChar

StartChar: uniE160
Encoding: 57696 57696 149
Width: 439
Flags: W
LayerCount: 2
Fore
SplineSet
410 0 m 1,0,-1
 321 0 l 1,1,-1
 321 121 l 1,2,-1
 410 121 l 1,3,-1
 410 0 l 1,0,-1
410 583 m 1,4,-1
 321 583 l 1,5,-1
 321 704 l 1,6,-1
 410 704 l 1,7,-1
 410 583 l 1,4,-1
274 0 m 1,8,-1
 185 0 l 1,9,-1
 185 121 l 1,10,-1
 274 121 l 1,11,-1
 274 0 l 1,8,-1
121 0 m 1,12,-1
 32 0 l 1,13,-1
 32 121 l 1,14,-1
 121 121 l 1,15,-1
 121 0 l 1,12,-1
274 583 m 1,16,-1
 185 583 l 1,17,-1
 185 704 l 1,18,-1
 274 704 l 1,19,-1
 274 583 l 1,16,-1
121 583 m 1,20,-1
 32 583 l 1,21,-1
 32 704 l 1,22,-1
 121 704 l 1,23,-1
 121 583 l 1,20,-1
EndSplineSet
Validated: 2049
Ligature2: "'liga' Standard Ligatures in Latin lookup 0-1" r r
Ligature2: "'liga' Standard Ligatures in Latin lookup 0-1" uniE138 uniE138
EndChar

StartChar: uni0080
Encoding: 128 128 151
Width: 217
Flags: W
LayerCount: 2
Fore
SplineSet
183 237 m 1,0,-1
 30 237 l 1,1,-1
 30 390 l 1,2,-1
 183 390 l 1,3,-1
 183 237 l 1,0,-1
EndSplineSet
Validated: 1
EndChar

StartChar: uni25C6
Encoding: 9670 9670 158
Width: 694
VWidth: 0
Flags: W
LayerCount: 2
Fore
SplineSet
372 67 m 1,0,-1
 58 356 l 1,1,-1
 372 646 l 1,2,-1
 687 356 l 1,3,-1
 372 67 l 1,0,-1
EndSplineSet
Validated: 1
EndChar

StartChar: uni25C7
Encoding: 9671 9671 159
Width: 694
VWidth: 0
Flags: W
LayerCount: 2
Fore
SplineSet
372 547 m 1,0,-1
 172 356 l 1,1,-1
 372 166 l 1,2,-1
 570 356 l 1,3,-1
 372 547 l 1,0,-1
372 67 m 1,4,-1
 58 356 l 5,5,-1
 372 646 l 5,6,-1
 687 356 l 1,7,-1
 372 67 l 1,4,-1
EndSplineSet
Validated: 1
EndChar
